 <svg  version="1.0" xmlns="http://www.w3.org/2000/svg"  width="900.000000pt" height="900.000000pt" viewBox="0 0 900.000000 900.000000"  preserveAspectRatio="xMidYMid meet">  <g transform="translate(0.000000,900.000000) scale(0.100000,-0.100000)" fill="#ff0000" stroke="none"> <path d="M4140 8960 c-80 -5 -165 -13 -190 -19 -25 -6 -63 -10 -85 -10 -22 -1 -71 -7 -110 -15 -38 -8 -108 -22 -155 -31 -109 -21 -166 -35 -365 -90 -27 -8 -59 -16 -70 -19 -25 -6 -170 -57 -245 -86 -30 -12 -66 -25 -80 -30 -83 -27 -417 -186 -535 -255 -33 -19 -69 -39 -80 -45 -11 -6 -33 -19 -50 -30 -16 -11 -36 -23 -44 -26 -31 -15 -275 -183 -336 -232 -5 -4 -39 -30 -75 -57 -182 -138 -445 -388 -616 -585 -50 -58 -141 -172 -202 -255 -61 -82 -116 -155 -122 -162 -5 -7 -10 -15 -10 -17 0 -3 -19 -34 -43 -69 -24 -34 -46 -69 -50 -77 -4 -8 -16 -28 -27 -45 -11 -16 -24 -39 -30 -50 -6 -11 -26 -47 -45 -80 -77 -132 -215 -426 -270 -575 -7 -19 -21 -55 -30 -80 -16 -42 -24 -63 -55 -150 -6 -19 -15 -51 -19 -70 -4 -19 -13 -45 -19 -57 -7 -12 -12 -32 -12 -44 0 -11 -7 -42 -15 -68 -20 -65 -41 -152 -60 -251 -9 -47 -23 -116 -31 -155 -8 -38 -14 -86 -14 -106 0 -20 -7 -74 -17 -120 -24 -124 -24 -894 0 -1018 10 -46 17 -100 17 -120 0 -20 7 -69 15 -108 8 -40 22 -108 30 -150 26 -128 46 -216 61 -258 8 -23 14 -51 14 -63 0 -13 5 -33 12 -45 6 -12 15 -38 19 -57 4 -19 13 -51 19 -70 19 -53 38 -105 55 -150 8 -22 21 -57 29 -77 69 -185 237 -535 316 -658 11 -16 24 -39 30 -50 64 -120 305 -452 454 -625 116 -134 312 -330 446 -446 173 -149 505 -390 625 -454 11 -6 34 -19 50 -30 122 -78 475 -248 658 -316 20 -8 54 -21 75 -29 78 -30 188 -67 222 -74 19 -4 45 -13 57 -19 12 -7 32 -12 44 -12 11 0 42 -7 68 -15 65 -20 152 -41 251 -60 47 -9 117 -23 155 -31 39 -8 86 -14 105 -14 19 0 76 -8 125 -17 133 -24 890 -24 1014 0 46 10 100 17 120 17 20 0 68 6 106 14 39 8 108 23 155 32 93 18 177 37 255 58 103 28 171 48 200 58 17 5 44 13 60 18 17 5 55 18 85 30 30 12 66 25 80 30 146 50 462 196 615 285 33 19 69 39 80 45 11 6 34 19 50 30 17 11 37 23 45 27 8 4 43 26 77 50 35 24 66 43 69 43 2 0 10 5 17 10 7 6 80 61 162 122 342 254 634 543 883 875 85 113 230 322 246 354 3 8 15 28 26 44 11 17 24 39 30 50 6 11 26 47 45 80 69 118 228 452 255 535 5 14 18 50 30 80 29 75 80 220 86 245 3 11 12 45 21 75 43 152 63 235 87 360 9 47 24 117 32 155 8 39 14 86 14 106 0 20 7 74 17 120 24 124 24 894 0 1018 -10 46 -17 100 -17 120 0 20 -6 68 -14 106 -8 39 -22 108 -31 155 -9 47 -23 108 -31 136 -8 28 -14 62 -14 75 -1 13 -7 35 -15 49 -8 14 -14 38 -15 53 0 16 -5 38 -12 50 -6 12 -15 38 -19 57 -8 37 -20 75 -73 218 -64 172 -112 285 -192 447 -41 83 -89 177 -109 210 -19 33 -39 69 -45 80 -6 11 -19 34 -30 50 -11 17 -23 37 -27 45 -4 8 -26 43 -50 77 -24 35 -43 66 -43 69 0 2 -5 10 -10 17 -6 7 -35 46 -65 87 -30 41 -58 80 -62 85 -5 6 -31 39 -58 75 -183 241 -514 572 -755 755 -36 27 -69 53 -75 58 -5 4 -44 32 -85 62 -41 30 -80 59 -87 65 -7 5 -15 10 -17 10 -3 0 -34 19 -69 43 -34 24 -69 46 -77 50 -8 4 -28 16 -45 27 -16 11 -39 24 -50 30 -11 6 -47 26 -80 45 -132 77 -419 212 -577 271 -198 74 -255 94 -298 104 -84 21 -127 33 -158 46 -18 8 -42 14 -54 14 -12 0 -44 6 -72 14 -28 8 -89 22 -136 31 -47 9 -116 23 -155 31 -38 8 -86 14 -107 14 -20 0 -71 7 -114 15 -95 18 -645 27 -864 15z m3155 -4470 l0 -475 -2800 0 -2800 0 -3 465 c-1 256 0 471 3 478 3 10 569 12 2802 10 l2798 -3 0 -475z"/> </g> </svg> 